# xmcd
#
# Track frame offsets: 
#        150
#        32832
#        64870
#        79542
#        100097
#        114215
#        125382
#        145377
#        159060
#        174005
#        188955
#        198837
#        213327
#        229370
#        244587
#        279992
#        290152
#
# Disc length: 4574 seconds
#
# Revision: 2
# Processed by: cddbd v1.5.2PL0 Copyright (c) Steve Scherf et al.
# Submitted via: ExactAudioCopy v0.95a3
#
DISCID=e411dc11
DTITLE=Doors - The Best Of The Doors - Limited Edition [CD1)
DYEAR=2000
DGENRE=
TTITLE0=Riders On The Storm
TTITLE1=Light My Fire
TTITLE2=Love Me Two Times
TTITLE3=Roadhouse Blues - Live
TTITLE4=Strange Days
TTITLE5=Break On Through (to the other side)
TTITLE6=Five To One
TTITLE7=Moonlight Drive
TTITLE8=Alabama Song (Whiskey Bar)
TTITLE9=Love Her Madly
TTITLE10=People Are Strange
TTITLE11=Touch Me
TTITLE12=Back Door Man
TTITLE13=The Unknown Soldier
TTITLE14=L.A. Woman
TTITLE15=Hello I Love You
TTITLE16=The End
EXTD=
EXTT0=
EXTT1=
EXTT2=
EXTT3=
EXTT4=
EXTT5=
EXTT6=
EXTT7=
EXTT8=
EXTT9=
EXTT10=
EXTT11=
EXTT12=
EXTT13=
EXTT14=
EXTT15=
EXTT16=
PLAYORDER=
